<?xml version="1.0"?>
<svg height="512" viewBox="-16 0 512 512" width="512" xmlns="http://www.w3.org/2000/svg"><path d="m473.070312 116.984375v61.183594c0 26.222656-21.25 47.484375-47.480468 47.484375h-61.175782c-.34375 0-.675781-.023438-1.011718-.03125l-18.640625 12.609375-29.457031 19.914062c-3.523438 2.390625-7.953126-1.386719-6.144532-5.242187 5.40625-11.554688 13.320313-28.4375 20.097656-42.816406-7.660156-8.429688-12.324218-19.632813-12.324218-31.917969v-61.183594c0-26.21875 21.261718-47.480469 47.480468-47.480469h61.175782c26.230468 0 47.480468 21.261719 47.480468 47.480469zm0 0" fill="#ff3c7d"></path><path d="m473.070312 116.984375v61.183594c0 26.222656-21.257812 47.484375-47.480468 47.484375h-61.175782c-.34375 0-.675781-.023438-1.011718-.03125l-1.847656-2.105469c-10.824219-12.308594-16.789063-28.136719-16.789063-44.523437v-62.007813c0-26.222656 21.257813-47.480469 47.480469-47.480469h33.34375c26.222656 0 47.480468 21.257813 47.480468 47.480469zm0 0" fill="#ff5e93"></path><path d="m287.011719 250.925781v-149.980469c-6.460938 0-242.46875 0-249.28125 0v149.980469s.316406 102.175781-24.933594 156.230469h299.148437c-25.25-54.054688-24.933593-156.230469-24.933593-156.230469zm0 0" fill="#f29500"></path><path d="m316.929688 435.230469v52.785156c0 9.058594-7.339844 16.394531-16.394532 16.394531h-276.289062c-9.058594 0-16.40625-7.335937-16.40625-16.394531v-52.785156c0-42.625 32.648437-77.660157 74.289062-81.414063 4.324219-.390625 154.410156-.589844 160.804688.03125 41.53125 3.898438 73.996094 38.851563 73.996094 81.382813zm0 0" fill="#ff3c7d"></path><path d="m242.933594 353.847656c-5.738282-.558594-116.566406-.394531-120.558594-.03125-41.640625 3.753906-74.289062 38.789063-74.289062 81.414063v52.785156c0 9.058594 7.347656 16.394531 16.40625 16.394531h236.042968c9.054688 0 16.394532-7.335937 16.394532-16.394531v-52.785156c0-42.53125-32.464844-77.484375-73.996094-81.382813zm0 0" fill="#ff5e93"></path><path d="m117.183594 283.605469h99.46875v170.011719h-99.46875zm0 0" fill="#f2bb88"></path><path d="m229.453125 26.007812h-138.175781c-18.253906 0-33.050782 14.796876-33.050782 33.050782v114.421875c-3.175781-.847657-6.511718-1.308594-9.957031-1.308594-21.265625 0-38.507812 17.238281-38.507812 38.507813 0 21.265624 17.242187 38.503906 38.507812 38.503906 3.722657 0 7.320313-.535156 10.722657-1.523438 8.019531 50.808594 77.539062 90.5625 101.375 90.570313 3.957031 0 9.1875-1.101563 15.179687-3.164063 13.15625-4.535156 30.003906-13.722656 45.375-26.160156 22.375-18.117188 41.582031-43.152344 41.582031-70.789062v-179.058594c0-18.253906-14.792968-33.050782-33.050781-33.050782zm0 0" fill="#f2bb88"></path><path d="m292.746094 210.683594c0-18.425782-12.949219-33.824219-30.242188-37.605469v-114.019531c0-18.253906-14.796875-33.050782-33.050781-33.050782h-107.816406c-18.253907 0-33.050781 14.796876-33.050781 33.050782v179.058594c0 46.632812 54.667968 85.816406 86.960937 96.949218 13.152344-4.535156 30.003906-13.722656 45.375-26.160156 19.542969-15.820312 36.667969-36.925781 40.691406-60.425781 17.738281-3.441407 31.132813-19.050781 31.132813-37.796875zm0 0" fill="#f2d1a5"></path><path d="m287.042969 90.5v69.242188c0 5.960937-4.613281 10.785156-10.308594 10.785156-18.359375 0-35.007813-10.785156-42.496094-27.554688l-10.320312-23.105468c-3.257813-7.285157-13.722657-6.949219-16.496094.539062-4.816406 12.992188-12.679687 24.628906-22.910156 33.960938l-.789063.71875c-18.78125 17.113281-42.988281 26.167968-67.601562 26.167968-11.355469 0-22.789063-1.921875-33.828125-5.878906-6.578125-2.367188-13.511719 2.519531-13.511719 9.503906v89.113282c0 4.292968-1.742188 8.167968-4.542969 10.96875-2.8125 2.816406-6.691406 4.546874-10.96875 4.546874-8.574219 0-15.523437-6.945312-15.523437-15.515624-.003906-7.253907-.011719-96.871094-.011719-128.5.011719-59.371094-.03125-54.433594.039063-57.492188 1.226562-44.980469 37.171874-80.410156 80.121093-80.410156h88.992188c43.433593 0 80.15625 36.371094 80.15625 82.910156zm0 0" fill="#ffa90b"></path><path d="m287.042969 90.5v49.851562c-21.90625-1.449218-41.359375-13.601562-50.414063-31.835937l-13.320312-26.808594c-4.207032-8.460937-17.707032-8.066406-21.289063.628907-6.214843 15.066406-16.355469 28.578124-29.5625 39.40625l-1.011719.828124c-24.234374 19.855469-55.464843 30.359376-87.222656 30.359376-14.640625 0-29.40625-2.234376-43.644531-6.820313-.953125-.304687-1.902344-.507813-2.84375-.617187.011719-59.371094-.03125-54.433594.039063-57.492188 1.226562-44.980469 37.171874-80.410156 80.121093-80.410156h88.992188c43.433593 0 80.15625 36.371094 80.15625 82.910156zm0 0" fill="#ffb52d"></path><path d="m228.925781 426.628906c46.441407-27.871094-9.894531-71.367187-12.183593-73.097656h-.089844l-49.699219 150.808594-49.773437-150.804688h-.257813c-4.960937 3.863282-57.125 45.984375-11.941406 73.09375 2.355469 1.40625 3.5 4.210938 2.800781 6.871094l-4.277344 16.203125c-.628906 2.386719.210938 4.917969 2.152344 6.445313.03125.019531 60.304688 47.472656 61.289062 48.25.007813 0 .007813.011718.007813.011718s0-.011718.011719-.011718c.980468-.777344 61.253906-48.230469 61.285156-48.25 1.933594-1.527344 2.78125-4.058594 2.15625-6.445313l-4.28125-16.203125c-.710938-2.660156.445312-5.464844 2.800781-6.871094zm0 0" fill="#8078bf"></path><path d="m181.722656 404.101562c-7.558594 9.886719-23.96875 9.390626-30.847656-.980468-1.417969-2.125-30.355469-44.578125-33.695312-49.585938l49.773437 150.804688 49.699219-150.808594zm0 0" fill="#def4f8"></path><path d="m425.59375 61.917969h-61.179688c-30.367187 0-55.070312 24.703125-55.070312 55.070312v61.179688c0 11.988281 3.875 23.535156 11.003906 33.03125-6.347656 13.460937-13.214844 28.113281-18.066406 38.488281-5.0625 10.820312 7.382812 21.4375 17.277344 14.746094l46.128906-31.195313h59.902344c30.367187 0 55.074218-24.707031 55.074218-55.070312v-61.179688c0-30.367187-24.703124-55.070312-55.070312-55.070312zm39.890625 116.25c0 21.996093-17.894531 39.890625-39.890625 39.890625-67.972656 0-63.734375-.558594-66.445312 1.277344l-37.894532 25.625c4.628906-9.878907 10-21.3125 14.871094-31.636719 1.3125-2.773438.820312-6.066407-1.242188-8.339844-6.683593-7.355469-10.359374-16.875-10.359374-26.816406v-61.179688c0-21.996093 17.894531-39.890625 39.890624-39.890625h61.179688c21.996094 0 39.890625 17.894532 39.890625 39.890625zm0 0"></path><path d="m374.257812 112.75v36.175781c-21.445312-40.902343-19.484374-41.175781-29.472656-41.175781-4.148437 0-8.300781 1.597656-8.300781 5.109375v67.5625c0 3.40625 4.148437 5.105469 8.300781 5.105469 4.148438 0 8.296875-1.699219 8.296875-5.105469v-36.175781l20.21875 36.8125c2.019531 3.726562 5.425781 4.46875 9.253907 4.46875 4.152343 0 8.300781-1.699219 8.300781-5.105469v-67.671875c0-6.703125-16.597657-6.726562-16.597657 0zm0 0"></path><path d="m427.566406 107.75c-14.683594 0-26.070312 6.808594-26.070312 25.109375v28.195313c0 18.300781 11.386718 25.109374 26.070312 25.109374 14.679688 0 26.171875-6.808593 26.171875-25.109374v-28.195313c0-18.300781-11.492187-25.109375-26.171875-25.109375zm9.574219 53.304688c0 7.34375-3.617187 10.640624-9.574219 10.640624-5.960937 0-9.472656-3.296874-9.472656-10.640624v-28.191407c0-7.34375 3.511719-10.640625 9.472656-10.640625 5.957032 0 9.574219 3.296875 9.574219 10.640625zm0 0"></path><path d="m226.75 206.1875c0 6.683594-5.417969 12.101562-12.101562 12.101562-6.683594 0-12.101563-5.417968-12.101563-12.101562 0-6.679688 5.417969-12.097656 12.101563-12.097656 6.683593 0 12.101562 5.417968 12.101562 12.097656zm0 0"></path><path d="m238.140625 188.675781c7.574219 0 10.488281-9.964843 4.046875-14.015625-16.289062-10.242187-42.460938-5.179687-45.394531-4.566406-4.097657.855469-6.726563 4.867188-5.878907 8.96875.851563 4.097656 4.863282 6.738281 8.96875 5.894531 6.316407-1.304687 24.785157-3.378906 34.222657 2.554688 1.257812.789062 2.652343 1.164062 4.035156 1.164062zm0 0"></path><path d="m122.066406 206.1875c0 6.683594-5.417968 12.101562-12.101562 12.101562s-12.101563-5.417968-12.101563-12.101562c0-6.679688 5.417969-12.097656 12.101563-12.097656s12.101562 5.417968 12.101562 12.097656zm0 0"></path><path d="m135.726562 272.332031c0 4.191407 3.398438 7.589844 7.589844 7.589844h36.632813c4.191406 0 7.589843-3.398437 7.589843-7.589844 0-4.191406-3.398437-7.589843-7.589843-7.589843h-36.632813c-4.191406 0-7.589844 3.398437-7.589844 7.589843zm0 0"></path><path d="m294.523438 232.917969c7.644531-13.804688 7.640624-30.667969 0-44.46875 0-5.15625.03125-92.789063.03125-97.949219 0-49.898438-39.367188-90.5-87.75-90.5h-88.992188c-23.101562 0-44.953125 9.238281-61.519531 26.007812-2.953125 2.984376-2.921875 7.792969.0625 10.738282 3.332031 3.144531 7.984375 2.710937 10.738281-.070313 8.480469-8.59375 18.628906-14.785156 29.640625-18.257812 13.453125-4.25 13.042969-3.238281 110.070313-3.238281 37.464843 0 72.570312 30.132812 72.570312 78.175781 0 .378906.015625 66.492187-.03125 66.871093-.203125 1.527344-1.335938 2.710938-2.691406 2.710938-15.246094 0-29.265625-8.972656-35.558594-23.0625-10.828125-24.230469-11.371094-28.113281-18.390625-31.339844-8.503906-3.953125-19.027344-.105468-22.484375 9.238282-3.308594 8.9375-8.15625 17.125-14.402344 24.328124-2.75 3.167969-2.40625 7.953126.761719 10.707032 3.167969 2.742187 7.960937 2.398437 10.707031-.769532 7.4375-8.582031 13.214844-18.335937 17.171875-28.992187.082031-.214844.324219-.859375 1.253907-.859375 1.207031 0 .265624-1.304688 11.527343 23.882812 5.515625 12.332032 15.378907 22.046876 27.597657 27.433594 0 70.257813.050781 65.597656-.121094 68.085938-3.949219 60.769531-64.679688 90.085937-94.429688 89.054687-17.707031 0-63.425781-23.121093-83.992187-56.523437 0-10.347656 0-79.453125 0-89.242188 0-1.847656 1.851562-2.949218 3.359375-2.359375 31.621094 11.234375 65.457031 7.148438 92.707031-9.511719 3.570313-2.1875 4.695313-6.859374 2.507813-10.433593-2.183594-3.582031-6.859376-4.707031-10.433594-2.519531-23.335938 14.269531-52.59375 17.878906-79.660156 8.167968-9.703126-3.453125-19.292969 2.148438-22.253907 9.765625-.019531.019531-.03125.039063-.03125.070313-1.925781 4.285156-1.375.5-1.375 95.933594 0 4.410156-3.597656 7.925781-7.925781 7.925781-4.371094 0-7.933594-3.554688-7.933594-7.925781 0-151.550782-.039062-183.710938.019532-185.394532.660156-25.742187 10.398437-29.304687 5.859374-36.371094-3.199218-5.027343-10.867187-4.5625-13.335937 1.042969-9.644531 21.980469-7.734375 30.011719-7.734375 115.023438-37.1875 15.972656-37.242188 68.765625-.019531 84.761719-.121094 13.976562-1.730469 94.105468-20.875 143.074218-11.171875 23.035156-8.996094 35.992188-8.996094 91.886719 0 13.226563 10.765625 23.984375 23.992187 23.984375h276.289063c13.226563 0 23.984375-10.757812 23.984375-23.984375 0-55.179687 2.273438-68.945313-9.117188-92.109375-17.792968-45.742188-20.796874-115.429688-20.796874-162.988281zm-24.507813-48.757813c20.046875 11.984375 20.054687 41.058594 0 53.046875zm-45.855469 138.40625c26.171875-17.960937 37.953125-43.628906 43.839844-67.914062 4.058594-1.273438 7.863281-3.09375 11.34375-5.382813 0 35.210938 3.605469 80.476563 11.316406 115.992188-26.597656-21.160157-53.121094-19.386719-66.5-19.386719zm-99.464844 11.8125c36.644532 19.164063 56.027344 11.75 84.285157-1.945312v18.488281l-36.097657 47.21875c-4.546874 5.914063-13.226562 5.304687-17.121093-.574219l-31.066407-46.785156zm-81.222656-39.429687c8.988282 4.1875 19.789063 4.371093 26.675782-3.078125 10.773437 14.011718 24.675781 26.109375 39.367187 35.753906v18.25c-20.265625 0-47.402344-3.070312-75.605469 19.429688 5.230469-24.054688 8.042969-49.546876 9.5625-70.355469zm-13.410156-109.300781v50.0625c-17.050781-12.394532-17.046875-37.671876 0-50.0625zm-5.898438 311.171874c-4.855468 0-8.8125-3.945312-8.8125-8.804687v-52.785156c0-41.386719 33.078126-74.175781 74.15625-74.175781h8.207032c-23.488282 25.796874-27.105469 53.246093 2.378906 71.535156l-4.011719 15.1875c-1.394531 5.3125.488281 10.9375 4.800781 14.332031l44.085938 34.710937zm86.832032-46.070312 4.050781-15.324219c1.542969-5.894531-1.027344-12.195312-6.242187-15.304687-9.414063-5.648438-14.179688-11.960938-14.570313-19.300782-.644531-12.039062 10.339844-25.644531 19.332031-34.363281l38.273438 116.453125zm30.964844-46.519531c12.40625 18.667969 33.378906 15.6875 42.988281 3.132812 7.242187-9.472656 4.929687-6.449219 10.351562-13.542969l-28.417969 86.242188zm78.277343-37.582031c8.96875 8.667968 19.917969 22.1875 19.289063 34.171874-.386719 7.328126-5.15625 13.644532-14.566406 19.292969-5.25 3.132813-7.820313 9.4375-6.253907 15.335938l4.042969 15.300781-40.816406 32.140625zm89.019531 121.367187c0 4.859375-3.945312 8.804687-8.804687 8.804687h-111.671875l44.09375-34.722656c4.300781-3.398437 6.179688-9.019531 4.789062-14.328125l-4.011718-15.179687c29.546875-18.320313 25.851562-45.792969 2.296875-71.515625 27.972656.363281 51.910156 15.730469 64.292969 38.496093 11.300781 20.714844 9.015624 34.140626 9.015624 88.445313zm0 0"></path></svg>