<?xml version="1.0"?>
 <!-- Generator: Adobe Illustrator 19.0.0, SVG Export Plug-In . SVG Version: 6.00 Build 0) --> <svg version="1.1" id="Layer_1" xmlns="http://www.w3.org/2000/svg" xmlns:xlink="http://www.w3.org/1999/xlink" x="0px" y="0px" viewBox="0 0 512 512" style="enable-background:new 0 0 512 512;" xml:space="preserve" width="512" height="512"> <rect x="79.9" y="310.95" style="fill:#FAD06A;" width="387.1" height="193.55"></rect> <rect x="447" y="310.95" style="fill:#F5BE48;" width="20" height="193.55"></rect> <rect x="273.45" y="117.4" style="fill:#EC7462;" width="193.55" height="193.55"></rect> <rect x="447" y="117.4" style="fill:#DB4E40;" width="20" height="193.55"></rect> <rect x="45" y="37.868" style="fill:#76D3BD;" width="193.55" height="193.55"></rect> <rect x="218.52" y="37.868" style="fill:#5AB8A2;" width="20.05" height="193.55"></rect> <rect x="101.61" y="280.58" style="fill:#EC7462;" width="55.01" height="30.368"></rect> <rect x="136.63" y="280.58" style="fill:#DB4E40;" width="20" height="30.368"></rect> <rect x="197.83" y="280.58" style="fill:#EC7462;" width="55.01" height="30.368"></rect> <rect x="232.85" y="280.58" style="fill:#DB4E40;" width="20" height="30.368"></rect> <rect x="66.71" y="7.5" style="fill:#FAD06A;" width="55.01" height="30.368"></rect> <rect x="101.73" y="7.5" style="fill:#F5BE48;" width="20" height="30.368"></rect> <rect x="162.93" y="7.5" style="fill:#FAD06A;" width="55.01" height="30.368"></rect> <rect x="197.94" y="7.5" style="fill:#F5BE48;" width="20" height="30.368"></rect> <rect x="294.05" y="87.03" style="fill:#76D3BD;" width="55.01" height="30.368"></rect> <rect x="329.07" y="87.03" style="fill:#5AB8A2;" width="20" height="30.368"></rect> <rect x="390.27" y="87.03" style="fill:#76D3BD;" width="55.01" height="30.368"></rect> <rect x="425.29" y="87.03" style="fill:#5AB8A2;" width="20" height="30.368"></rect> <path d="M467,442.15c4.142,0,7.5-3.357,7.5-7.5v-123.7c0-0.01-0.001-0.019-0.001-0.029V182.5c0-4.143-3.358-7.5-7.5-7.5 c-4.142,0-7.5,3.357-7.5,7.5v120.95H280.95V124.901h13.104h55.013h41.207h55.013H459.5v22.5c0,4.143,3.358,7.5,7.5,7.5 c4.142,0,7.5-3.357,7.5-7.5v-30c0-4.143-3.358-7.5-7.5-7.5h-14.213V87.033c0-4.143-3.358-7.5-7.5-7.5h-55.013 c-4.142,0-7.5,3.357-7.5,7.5v22.868h-26.207V87.033c0-4.143-3.358-7.5-7.5-7.5h-55.013c-4.142,0-7.5,3.357-7.5,7.5v22.868H273.45 c-4.142,0-7.5,3.357-7.5,7.5V303.45h-5.603v-22.868c0-4.143-3.358-7.5-7.5-7.5h-55.013c-4.142,0-7.5,3.357-7.5,7.5v22.868h-26.207 v-22.868c0-4.143-3.358-7.5-7.5-7.5h-55.013c-4.142,0-7.5,3.357-7.5,7.5v22.868H79.9c-4.142,0-7.5,3.357-7.5,7.5V504.5 c0,4.143,3.358,7.5,7.5,7.5H467c1.989,0,3.897-0.79,5.303-2.197c1.407-1.406,2.197-3.313,2.197-5.303l-0.001-30 c0-4.143-3.358-7.5-7.5-7.5c-4.142,0-7.5,3.358-7.5,7.5L459.5,497H87.4V318.45h14.214h55.013h41.207h55.013h20.603H459.5v116.2 C459.5,438.793,462.858,442.15,467,442.15z M397.772,94.533h40.013v15.368h-40.013V94.533z M301.553,94.533h40.013v15.368h-40.013 V94.533z M109.114,303.45v-15.368h40.013v15.368H109.114z M205.333,303.45v-15.368h40.013v15.368H205.333z"></path> <path d="M109.9,333.45c-4.142,0-7.5,3.357-7.5,7.5V474.5c0,4.143,3.358,7.5,7.5,7.5s7.5-3.357,7.5-7.5V348.45H437 c4.142,0,7.5-3.357,7.5-7.5s-3.358-7.5-7.5-7.5H109.9z"></path> <path d="M303.45,139.901c-4.142,0-7.5,3.357-7.5,7.5V280.95c0,4.143,3.358,7.5,7.5,7.5c4.142,0,7.5-3.357,7.5-7.5V154.901h126.049 c4.142,0,7.5-3.357,7.5-7.5s-3.358-7.5-7.5-7.5H303.45z"></path> <path d="M82.5,231.417c0-4.143-3.358-7.5-7.5-7.5H52.5V45.368h14.213h55.013h41.207h55.013h13.103v178.549H110.73 c-4.142,0-7.5,3.357-7.5,7.5s3.358,7.5,7.5,7.5h127.818c4.142,0,7.5-3.357,7.5-7.5V37.868c0-4.143-3.358-7.5-7.5-7.5h-13.103V7.5 c0-4.143-3.358-7.5-7.5-7.5h-55.013c-4.142,0-7.5,3.357-7.5,7.5v22.868h-26.207V7.5c0-4.143-3.358-7.5-7.5-7.5H66.713 c-4.142,0-7.5,3.357-7.5,7.5v22.868H45c-4.142,0-7.5,3.357-7.5,7.5v193.549c0,4.143,3.358,7.5,7.5,7.5h30 C79.142,238.917,82.5,235.56,82.5,231.417z M170.433,15h40.013v15.368h-40.013V15z M74.213,15h40.013v15.368H74.213V15z"></path> <path d="M216.048,67.868c0-4.143-3.358-7.5-7.5-7.5H75c-4.142,0-7.5,3.357-7.5,7.5v133.549c0,4.143,3.358,7.5,7.5,7.5 s7.5-3.357,7.5-7.5V75.368h126.048C212.69,75.368,216.048,72.011,216.048,67.868z"></path> <g> </g> <g> </g> <g> </g> <g> </g> <g> </g> <g> </g> <g> </g> <g> </g> <g> </g> <g> </g> <g> </g> <g> </g> <g> </g> <g> </g> <g> </g> </svg> 