<?xml version="1.0"?>
 <!-- Generator: Adobe Illustrator 19.0.0, SVG Export Plug-In . SVG Version: 6.00 Build 0) --> <svg version="1.1" id="Capa_1" xmlns="http://www.w3.org/2000/svg" xmlns:xlink="http://www.w3.org/1999/xlink" x="0px" y="0px" viewBox="0 0 436.907 436.907" style="enable-background:new 0 0 436.907 436.907;" xml:space="preserve" width="436.907" height="436.907"> <path style="fill:#777777;" d="M88.748,122.936c0-22.653,18.309-41.016,40.962-41.016h150.183c22.622,0,40.962,18.301,40.962,41.016 V313.97c0,22.653-18.309,41.016-40.962,41.016H129.708c-22.622,0-40.962-18.301-40.962-41.016V122.936H88.748z"></path> <path d="M279.891,361.813h-150.18c-26.351,0-47.79-21.46-47.79-47.84v-191.04c0-26.38,21.439-47.84,47.79-47.84h150.18 c26.351,0,47.79,21.46,47.79,47.84v191.041C327.681,340.354,306.242,361.813,279.891,361.813z M129.711,88.747 c-18.823,0-34.137,15.333-34.137,34.186v191.041c0,18.854,15.314,34.186,34.137,34.186h150.18c18.823,0,34.137-15.333,34.137-34.186 V122.933c0-18.854-15.314-34.186-34.137-34.186C279.891,88.747,129.711,88.747,129.711,88.747z"></path> <path style="fill:#26BBEC;" d="M132.874,26.95c2.021-11.114,12.829-20.123,24.1-20.123h95.652c11.29,0,22.088,9.057,24.1,20.123 l9.994,54.97h-163.84L132.874,26.95z"></path> <path d="M286.721,88.747h-163.84c-2.024,0-3.944-0.899-5.239-2.454s-1.84-3.599-1.476-5.593l9.993-54.967l0,0 C128.784,11.3,142.322,0,156.975,0h95.654c14.657,0,28.191,11.3,30.817,25.733l9.993,54.967c0.363,1.993-0.179,4.04-1.476,5.593 C290.665,87.846,288.745,88.747,286.721,88.747z M131.061,75.093h147.48l-8.53-46.92c-1.434-7.866-9.393-14.52-17.384-14.52h-95.654 c-7.991,0-15.951,6.647-17.384,14.52L131.061,75.093z"></path> <path style="fill:#26BBEC;" d="M132.874,409.957c2.021,11.114,12.829,20.123,24.1,20.123h95.652c11.29,0,22.088-9.057,24.1-20.123 l9.994-54.97h-163.84L132.874,409.957z"></path> <path d="M252.627,436.907h-95.654c-14.653,0-28.191-11.3-30.817-25.733l0,0l-9.993-54.967c-0.364-1.993,0.179-4.04,1.476-5.593 s3.217-2.454,5.241-2.454h163.84c2.024,0,3.944,0.899,5.239,2.454c1.295,1.555,1.84,3.599,1.476,5.593l-9.993,54.967 C280.818,425.607,267.284,436.907,252.627,436.907z M139.59,408.733c1.434,7.873,9.393,14.52,17.384,14.52h95.654 c7.991,0,15.95-6.653,17.384-14.52l8.528-46.92h-147.48L139.59,408.733z"></path> <path style="fill:#DDDDDD;" d="M335.52,218.453h-14.665v-61.44h14.665c6.982,0,12.641,5.659,12.641,12.641v36.157 C348.161,212.794,342.502,218.453,335.52,218.453z"></path> <path d="M335.521,225.28h-14.667c-3.77,0-6.827-3.053-6.827-6.827v-61.44c0-3.773,3.057-6.827,6.827-6.827h14.667 c10.733,0,19.466,8.733,19.466,19.466v36.161C354.988,216.547,346.255,225.28,335.521,225.28z M327.681,211.627h7.84 c3.207,0,5.813-2.606,5.813-5.813v-36.161c0-3.207-2.606-5.813-5.813-5.813h-7.84V211.627z"></path> <circle style="fill:#85D839;" cx="204.801" cy="218.45" r="27.307"></circle> <path d="M204.801,252.587c-18.819,0-34.133-15.314-34.133-34.133s15.314-34.133,34.133-34.133s34.133,15.314,34.133,34.133 S223.62,252.587,204.801,252.587z M204.801,197.973c-11.293,0-20.48,9.187-20.48,20.48s9.187,20.48,20.48,20.48 s20.48-9.187,20.48-20.48S216.094,197.973,204.801,197.973z"></path> <circle style="fill:#FFDD95;" cx="133.12" cy="218.45" r="23.893"></circle> <path d="M133.12,249.173c-16.94,0-30.72-13.78-30.72-30.72s13.78-30.72,30.72-30.72s30.72,13.78,30.72,30.72 S150.061,249.173,133.12,249.173z M133.12,201.387c-9.411,0-17.067,7.653-17.067,17.067s7.656,17.067,17.067,17.067 s17.067-7.653,17.067-17.067S142.532,201.387,133.12,201.387z"></path> <circle style="fill:#26BBEC;" cx="276.481" cy="218.45" r="23.893"></circle> <path d="M276.481,249.173c-16.94,0-30.72-13.78-30.72-30.72s13.78-30.72,30.72-30.72s30.72,13.78,30.72,30.72 S293.421,249.173,276.481,249.173z M276.481,201.387c-9.411,0-17.067,7.653-17.067,17.067s7.656,17.067,17.067,17.067 s17.067-7.653,17.067-17.067S285.892,201.387,276.481,201.387z"></path> <circle style="fill:#2A8EE6;" cx="174.081" cy="139.95" r="23.893"></circle> <path d="M174.081,170.667c-16.94,0-30.72-13.78-30.72-30.72s13.78-30.72,30.72-30.72s30.72,13.78,30.72,30.72 S191.021,170.667,174.081,170.667z M174.081,122.88c-9.411,0-17.067,7.653-17.067,17.067s7.656,17.067,17.067,17.067 s17.067-7.653,17.067-17.067S183.492,122.88,174.081,122.88z"></path> <circle style="fill:#ED5481;" cx="242.351" cy="139.95" r="23.893"></circle> <path d="M242.348,170.667c-16.94,0-30.72-13.78-30.72-30.72s13.78-30.72,30.72-30.72s30.72,13.78,30.72,30.72 S259.288,170.667,242.348,170.667z M242.348,122.88c-9.411,0-17.067,7.653-17.067,17.067s7.656,17.067,17.067,17.067 s17.067-7.653,17.067-17.067S251.758,122.88,242.348,122.88z"></path> <circle style="fill:#FBAD4A;" cx="174.081" cy="290.13" r="23.893"></circle> <path d="M174.081,320.853c-16.94,0-30.72-13.78-30.72-30.72s13.78-30.72,30.72-30.72s30.72,13.78,30.72,30.72 S191.021,320.853,174.081,320.853z M174.081,273.067c-9.411,0-17.067,7.653-17.067,17.067s7.656,17.067,17.067,17.067 s17.067-7.653,17.067-17.067C191.148,280.719,183.492,273.067,174.081,273.067z"></path> <circle style="fill:#F87EA1;" cx="242.351" cy="290.13" r="23.893"></circle> <path d="M242.348,320.853c-16.94,0-30.72-13.78-30.72-30.72s13.78-30.72,30.72-30.72s30.72,13.78,30.72,30.72 S259.288,320.853,242.348,320.853z M242.348,273.067c-9.411,0-17.067,7.653-17.067,17.067s7.656,17.067,17.067,17.067 s17.067-7.653,17.067-17.067C259.414,280.719,251.758,273.067,242.348,273.067z"></path> <g> </g> <g> </g> <g> </g> <g> </g> <g> </g> <g> </g> <g> </g> <g> </g> <g> </g> <g> </g> <g> </g> <g> </g> <g> </g> <g> </g> <g> </g> </svg> 