<?xml version="1.0"?>
 <!-- Generator: Adobe Illustrator 19.0.0, SVG Export Plug-In . SVG Version: 6.00 Build 0) --> <svg version="1.1" id="Capa_1" xmlns="http://www.w3.org/2000/svg" xmlns:xlink="http://www.w3.org/1999/xlink" x="0px" y="0px" viewBox="0 0 464 464" style="enable-background:new 0 0 464 464;" xml:space="preserve" width="464" height="464"> <polygon style="fill:#999999;" points="299.48,436.184 277.088,357.8 186.912,357.8 164.52,436.184 "></polygon> <path style="fill:#CCCCCC;" d="M56,0h352c30.928,0,56,25.072,56,56v256c0,30.928-25.072,56-56,56H56c-30.928,0-56-25.072-56-56V56 C0,25.072,25.072,0,56,0z"></path> <path style="fill:#29ABE2;" d="M64,40h335.656c13.255,0,24,10.745,24,24v216c0,13.255-10.745,24-24,24H64c-13.255,0-24-10.745-24-24 V64C40,50.745,50.745,40,64,40z"></path> <path style="fill:#CCCCCC;" d="M108,424h248c11.046,0,20,8.954,20,20l0,0c0,11.046-8.954,20-20,20H108c-11.046,0-20-8.954-20-20l0,0 C88,432.954,96.954,424,108,424z"></path> <rect x="224" y="328" style="fill:#999999;" width="16" height="16"></rect> <g> <path style="fill:#0071BC;" d="M88,136H72V88.144C72.009,79.232,79.232,72.009,88.144,72H208v16H88.144L88,136z"></path> <rect x="224" y="72" style="fill:#0071BC;" width="16" height="16"></rect> </g> <g> </g> <g> </g> <g> </g> <g> </g> <g> </g> <g> </g> <g> </g> <g> </g> <g> </g> <g> </g> <g> </g> <g> </g> <g> </g> <g> </g> <g> </g> </svg> 