<?xml version="1.0"?>
 <!-- Generator: Adobe Illustrator 19.0.0, SVG Export Plug-In . SVG Version: 6.00 Build 0) --> <svg version="1.1" id="Capa_1" xmlns="http://www.w3.org/2000/svg" xmlns:xlink="http://www.w3.org/1999/xlink" x="0px" y="0px" viewBox="0 0 496.485 496.485" style="enable-background:new 0 0 496.485 496.485;" xml:space="preserve" width="496.485" height="496.485"> <path style="fill:#F16051;" d="M462.739,7.758H296.727c-12.412,0-22.497,10.085-22.497,22.497V466.23 c0,12.412,10.085,22.497,22.497,22.497h166.012c12.412,0,22.497-10.085,22.497-22.497V30.255 C485.236,17.842,475.152,7.758,462.739,7.758z"></path> <path style="fill:#193651;" d="M462.739,496.485H296.727c-16.291,0-30.255-13.188-30.255-30.255V30.255 C266.473,13.964,279.661,0,296.727,0h166.012c16.291,0,30.255,13.188,30.255,30.255V466.23 C492.994,483.297,479.806,496.485,462.739,496.485z M296.727,14.739c-8.533,0-14.739,6.982-14.739,14.739v435.976 c0,8.533,6.982,14.739,14.739,14.739h166.012c8.533,0,14.739-6.982,14.739-14.739v-435.2c0-8.533-6.982-14.739-14.739-14.739 H296.727V14.739z"></path> <circle style="fill:#FFFFFF;" cx="379.733" cy="259.103" r="24.824"></circle> <circle style="fill:#FDBF5E;" cx="379.733" cy="330.473" r="11.636"></circle> <g> <rect x="304.485" y="449.164" style="fill:#FFFFFF;" width="151.273" height="10.085"></rect> <rect x="304.485" y="422.788" style="fill:#FFFFFF;" width="151.273" height="10.085"></rect> <rect x="304.485" y="397.188" style="fill:#FFFFFF;" width="151.273" height="10.085"></rect> <rect x="304.485" y="37.236" style="fill:#FFFFFF;" width="151.273" height="41.891"></rect> <rect x="304.485" y="102.4" style="fill:#FFFFFF;" width="151.273" height="41.891"></rect> </g> <path style="fill:#2EA2DB;" d="M314.57,158.255H32.194c-11.636,0-20.945,9.309-20.945,20.945v209.455h323.491V179.2 C334.739,167.564,325.43,158.255,314.57,158.255z"></path> <path style="fill:#193651;" d="M334.739,396.412H12.024c-3.879,0-7.758-3.103-7.758-7.758V179.2 c0-15.515,12.412-28.703,28.703-28.703h281.6c15.515,0,28.703,12.412,28.703,28.703v209.455 C342.497,392.533,339.394,396.412,334.739,396.412z M19.006,380.897h308.752V179.2c0-6.982-6.206-13.188-13.188-13.188H32.194 c-6.982,0-13.188,6.206-13.188,13.188C19.006,179.2,19.006,380.897,19.006,380.897z"></path> <g> <rect x="41.503" y="187.733" style="fill:#FFFFFF;" width="262.982" height="170.667"></rect> <path style="fill:#FFFFFF;" d="M12.024,388.655v34.133c0,11.636,9.309,20.945,20.945,20.945h281.6 c11.636,0,20.945-9.309,20.945-20.945v-34.133H12.024z"></path> </g> <path style="fill:#193651;" d="M314.57,450.715H32.194c-15.515,0-28.703-12.412-28.703-28.703v-34.133 c0-3.879,3.103-7.758,7.758-7.758h323.491c3.879,0,7.758,3.103,7.758,7.758v34.133C342.497,438.303,330.085,450.715,314.57,450.715z M19.006,396.412v26.376c0,6.982,6.206,13.188,13.188,13.188h281.6c6.982,0,13.188-6.206,13.188-13.188v-26.376H19.006z"></path> <rect x="131.491" y="443.733" style="fill:#FFFFFF;" width="83.782" height="38.012"></rect> <g> <path style="fill:#193651;" d="M215.273,488.727h-83.782c-3.879,0-7.758-3.103-7.758-7.758v-38.012 c0-3.879,3.103-7.758,7.758-7.758h83.782c3.879,0,7.758,3.103,7.758,7.758v38.012C223.03,485.624,219.152,488.727,215.273,488.727z M139.248,473.988h68.267v-23.273h-68.267L139.248,473.988L139.248,473.988z"></path> <path style="fill:#193651;" d="M234.667,488.727h-122.57c-3.879,0-7.758-3.103-7.758-7.758c0-3.879,3.103-7.758,7.758-7.758h122.57 c3.879,0,7.758,3.103,7.758,7.758C242.424,485.624,238.545,488.727,234.667,488.727z"></path> <rect x="127.612" y="408.824" style="fill:#193651;" width="14.739" height="13.964"></rect> <rect x="165.624" y="408.824" style="fill:#193651;" width="14.739" height="13.964"></rect> <rect x="203.636" y="408.824" style="fill:#193651;" width="14.739" height="13.964"></rect> <rect x="127.612" y="266.085" style="fill:#193651;" width="14.739" height="13.964"></rect> <rect x="165.624" y="266.085" style="fill:#193651;" width="14.739" height="13.964"></rect> <rect x="203.636" y="266.085" style="fill:#193651;" width="14.739" height="13.964"></rect> </g> <g> </g> <g> </g> <g> </g> <g> </g> <g> </g> <g> </g> <g> </g> <g> </g> <g> </g> <g> </g> <g> </g> <g> </g> <g> </g> <g> </g> <g> </g> </svg> 