<?xml version="1.0"?>
 <!-- Generator: Adobe Illustrator 19.0.0, SVG Export Plug-In . SVG Version: 6.00 Build 0) --> <svg version="1.1" id="Layer_1" xmlns="http://www.w3.org/2000/svg" xmlns:xlink="http://www.w3.org/1999/xlink" x="0px" y="0px" viewBox="0 0 511.999 511.999" style="enable-background:new 0 0 511.999 511.999;" xml:space="preserve" width="511.999" height="511.999"> <g> <path style="fill:#7F56C5;" d="M96.189,292.281H71.741C32.183,292.281,0,260.097,0,220.539V117.363 c0-10.308,8.356-18.664,18.664-18.664s18.665,8.356,18.665,18.664v103.177c0,18.974,15.437,34.413,34.412,34.413h24.447 c10.308,0,18.665,8.355,18.665,18.664C114.854,283.923,106.497,292.281,96.189,292.281z"></path> <path style="fill:#7F56C5;" d="M440.258,292.281h-24.447c-10.308,0-18.664-8.357-18.664-18.664 c0-10.309,8.356-18.664,18.664-18.664h24.447c18.975,0,34.412-15.44,34.412-34.413V117.364c0-10.308,8.357-18.664,18.665-18.664 s18.664,8.356,18.664,18.664V220.54C512,260.097,479.817,292.281,440.258,292.281z"></path> <path style="fill:#7F56C5;" d="M125.619,373.665c0-6.416,5.249-11.665,11.665-11.665h72.448c6.416,0,11.665,5.249,11.665,11.665 v125.154c0,6.418-5.249,11.666-11.665,11.666h-72.448c-6.416,0-11.665-5.248-11.665-11.666 C125.619,498.819,125.619,373.665,125.619,373.665z"></path> </g> <path style="fill:#F9E2A9;" d="M155.171,483.654v26.831h36.674v-26.831c0-10.125-8.21-18.336-18.337-18.336 C163.381,465.318,155.171,473.529,155.171,483.654z"></path> <path style="fill:#7F56C5;" d="M386.381,373.665c0-6.416-5.249-11.665-11.665-11.665h-72.448c-6.416,0-11.665,5.249-11.665,11.665 v125.154c0,6.418,5.249,11.666,11.665,11.666h72.448c6.416,0,11.665-5.248,11.665-11.666V373.665z"></path> <path style="fill:#F9E2A9;" d="M356.829,483.654v26.831h-36.674v-26.831c0-10.125,8.21-18.336,18.337-18.336 C348.619,465.318,356.829,473.529,356.829,483.654z"></path> <circle style="fill:#7F56C5;" cx="255.998" cy="247.947" r="186.716"></circle> <circle style="fill:#F9E2A9;" cx="255.998" cy="103.232" r="101.719"></circle> <circle style="fill:#FF671B;" cx="255.998" cy="103.232" r="49.535"></circle> <path style="opacity:0.3;enable-background:new ;" d="M316.288,338.779c28.838,0,52.217-23.379,52.217-52.216 c0-28.84-23.379-52.217-52.217-52.217H195.712c-28.838,0-52.217,23.377-52.217,52.217c0,28.837,23.379,52.216,52.217,52.216 L316.288,338.779L316.288,338.779z"></path> <g> <path style="fill:#F9E2A9;" d="M238.489,234.347l-15.874,29.104c-2.634,4.829-6.942,4.829-9.575,0l-15.873-29.104H238.489z"></path> <path style="fill:#F9E2A9;" d="M273.511,234.347l15.873,29.104c2.634,4.829,6.943,4.829,9.576,0l15.874-29.104H273.511z"></path> <path style="fill:#F9E2A9;" d="M238.489,338.779l-15.874-29.105c-2.634-4.829-6.942-4.829-9.575,0l-15.873,29.105H238.489z"></path> <path style="fill:#F9E2A9;" d="M273.511,338.779l15.873-29.105c2.634-4.829,6.943-4.829,9.576,0l15.874,29.105H273.511z"></path> </g> <circle style="opacity:0.2;enable-background:new ;" cx="398.029" cy="195.486" r="9.416"></circle> <path style="opacity:0.2;enable-background:new ;" d="M357.326,372.75c0-5.204-4.217-9.419-9.418-9.419 c-5.2,0-9.415,4.215-9.415,9.419c0,5.199,4.216,9.414,9.415,9.414C353.109,382.164,357.326,377.948,357.326,372.75z"></path> <circle style="opacity:0.2;enable-background:new ;" cx="115.811" cy="237.665" r="9.416"></circle> <path style="opacity:0.2;enable-background:new ;" d="M135.036,184.399c0-5.204-4.216-9.42-9.418-9.42 c-5.2,0-9.415,4.216-9.415,9.42c0,5.2,4.216,9.414,9.415,9.414C130.82,193.813,135.036,189.598,135.036,184.399z"></path> <g> </g> <g> </g> <g> </g> <g> </g> <g> </g> <g> </g> <g> </g> <g> </g> <g> </g> <g> </g> <g> </g> <g> </g> <g> </g> <g> </g> <g> </g> </svg> 